<?xml version="1.0" encoding="UTF-8" standalone="no"?>
<!DOCTYPE svg PUBLIC "-//W3C//DTD SVG 1.1//EN"
 "http://www.w3.org/Graphics/SVG/1.1/DTD/svg11.dtd">
<!-- Generated by graphviz version 2.38.0 (20140413.2041)
 -->
<!-- Title: Cobalt Royal Family Bush Pages: 1 -->
<svg width="711pt" height="1431pt"
 viewBox="0.00 0.00 710.58 1430.81" xmlns="http://www.w3.org/2000/svg" xmlns:xlink="http://www.w3.org/1999/xlink">
<g id="graph0" class="graph" transform="scale(1 1) rotate(0) translate(4 1426.81)">
<title>Cobalt Royal Family Bush</title>
<polygon fill="white" stroke="none" points="-4,4 -4,-1426.81 706.581,-1426.81 706.581,4 -4,4"/>
<!-- Duke -->
<g id="node1" class="node"><title>Duke</title>
<ellipse fill="none" stroke="black" cx="119.897" cy="-760.805" rx="29.795" ry="18"/>
<text text-anchor="middle" x="119.897" y="-757.105" font-family="Times,serif" font-size="14.00">Duke</text>
</g>
<!-- Erica -->
<g id="node37" class="node"><title>Erica</title>
<text text-anchor="middle" x="222.191" y="-925.105" font-family="Times,serif" font-size="14.00">Erica</text>
</g>
<!-- Duke&#45;&gt;Erica -->
<g id="edge23" class="edge"><title>Duke&#45;&gt;Erica</title>
<path fill="none" stroke="black" d="M126.898,-778.757C136.544,-805.996 157.341,-858.628 185.795,-896.805 187.512,-899.109 189.414,-901.377 191.418,-903.575"/>
<polygon fill="black" stroke="black" points="188.988,-906.094 198.513,-910.734 193.96,-901.167 188.988,-906.094"/>
</g>
<!-- Coral -->
<g id="node38" class="node"><title>Coral</title>
<text text-anchor="middle" x="222.191" y="-757.105" font-family="Times,serif" font-size="14.00">Coral</text>
</g>
<!-- Duke&#45;&gt;Coral -->
<g id="edge24" class="edge"><title>Duke&#45;&gt;Coral</title>
<path fill="none" stroke="black" d="M149.907,-760.805C160.803,-760.805 173.329,-760.805 184.811,-760.805"/>
<polygon fill="black" stroke="black" points="184.986,-764.306 194.986,-760.805 184.986,-757.306 184.986,-764.306"/>
</g>
<!-- Cynthia -->
<g id="node39" class="node"><title>Cynthia</title>
<text text-anchor="middle" x="222.191" y="-503.105" font-family="Times,serif" font-size="14.00">Cynthia</text>
</g>
<!-- Duke&#45;&gt;Cynthia -->
<g id="edge25" class="edge"><title>Duke&#45;&gt;Cynthia</title>
<path fill="none" stroke="black" d="M125.345,-742.813C137.936,-692.272 173.694,-551.538 185.795,-533.805 186.067,-533.406 186.347,-533.011 186.634,-532.619"/>
<polygon fill="black" stroke="black" points="189.473,-534.696 193.55,-524.917 184.264,-530.02 189.473,-534.696"/>
</g>
<!-- Derek -->
<g id="node40" class="node"><title>Derek</title>
<text text-anchor="middle" x="222.191" y="-991.105" font-family="Times,serif" font-size="14.00">Derek</text>
</g>
<!-- Duke&#45;&gt;Derek -->
<g id="edge26" class="edge"><title>Duke&#45;&gt;Derek</title>
<path fill="none" stroke="black" d="M124.269,-778.788C131.502,-814.46 150.764,-895.899 185.795,-955.805 188.439,-960.327 191.672,-964.777 195.098,-968.963"/>
<polygon fill="black" stroke="black" points="192.596,-971.419 201.82,-976.632 197.861,-966.805 192.596,-971.419"/>
</g>
<!-- Isis -->
<g id="node2" class="node"><title>Isis</title>
<ellipse fill="none" stroke="black" cx="454.088" cy="-322.805" rx="27" ry="18"/>
<text text-anchor="middle" x="454.088" y="-319.105" font-family="Times,serif" font-size="14.00">Isis</text>
</g>
<!-- Brandy -->
<g id="node3" class="node"><title>Brandy</title>
<ellipse fill="none" stroke="black" cx="222.191" cy="-108.805" rx="36.2938" ry="18"/>
<text text-anchor="middle" x="222.191" y="-105.105" font-family="Times,serif" font-size="14.00">Brandy</text>
</g>
<!-- Alaric -->
<g id="node25" class="node"><title>Alaric</title>
<polygon fill="none" stroke="blue" points="361.088,-126.805 307.088,-126.805 307.088,-90.8054 361.088,-90.8054 361.088,-126.805"/>
<text text-anchor="middle" x="334.088" y="-105.105" font-family="Times,serif" font-size="14.00">Alaric</text>
</g>
<!-- Brandy&#45;&gt;Alaric -->
<g id="edge85" class="edge"><title>Brandy&#45;&gt;Alaric</title>
<path fill="none" stroke="black" d="M258.872,-108.805C270.99,-108.805 284.541,-108.805 296.713,-108.805"/>
<polygon fill="black" stroke="black" points="296.984,-112.306 306.984,-108.805 296.984,-105.306 296.984,-112.306"/>
</g>
<!-- Theresa -->
<g id="node57" class="node"><title>Theresa</title>
<text text-anchor="middle" x="573.585" y="-334.105" font-family="Times,serif" font-size="14.00">Theresa</text>
</g>
<!-- Brandy&#45;&gt;Theresa -->
<g id="edge84" class="edge"><title>Brandy&#45;&gt;Theresa</title>
<path fill="none" stroke="black" d="M244.379,-94.4613C249.314,-90.6421 254.357,-86.3145 258.588,-81.8054 278.325,-60.7709 269.157,-41.4159 294.588,-27.8054 375.386,15.4365 436.279,9.39431 498.588,-57.8054 566.848,-131.423 497.909,-187.351 534.588,-280.805 538.77,-291.46 545.178,-302.16 551.547,-311.365"/>
<polygon fill="black" stroke="black" points="548.869,-313.634 557.567,-319.682 554.539,-309.529 548.869,-313.634"/>
</g>
<!-- Sashelas -->
<g id="node61" class="node"><title>Sashelas</title>
<text text-anchor="middle" x="334.088" y="-51.1054" font-family="Times,serif" font-size="14.00">Sashelas</text>
</g>
<!-- Brandy&#45;&gt;Sashelas -->
<g id="edge86" class="edge"><title>Brandy&#45;&gt;Sashelas</title>
<path fill="none" stroke="black" d="M248.68,-96.281C261.913,-89.779 278.381,-81.687 293.249,-74.3812"/>
<polygon fill="black" stroke="black" points="294.825,-77.5066 302.257,-69.9552 291.738,-71.224 294.825,-77.5066"/>
</g>
<!-- Sirona -->
<g id="node4" class="node"><title>Sirona</title>
<ellipse fill="none" stroke="black" cx="454.088" cy="-376.805" rx="33.5952" ry="18"/>
<text text-anchor="middle" x="454.088" y="-373.105" font-family="Times,serif" font-size="14.00">Sirona</text>
</g>
<!-- Paulette -->
<g id="node5" class="node"><title>Paulette</title>
<ellipse fill="none" stroke="black" cx="573.585" cy="-685.805" rx="38.9931" ry="18"/>
<text text-anchor="middle" x="573.585" y="-682.105" font-family="Times,serif" font-size="14.00">Paulette</text>
</g>
<!-- Ozma -->
<g id="node6" class="node"><title>Ozma</title>
<polygon fill="none" stroke="black" points="249.191,-470.805 195.191,-470.805 195.191,-434.805 249.191,-434.805 249.191,-470.805"/>
<text text-anchor="middle" x="222.191" y="-449.105" font-family="Times,serif" font-size="14.00">Ozma</text>
</g>
<!-- Osric -->
<g id="node9" class="node"><title>Osric</title>
<polygon fill="none" stroke="black" points="361.088,-472.805 307.088,-472.805 307.088,-436.805 361.088,-436.805 361.088,-472.805"/>
<text text-anchor="middle" x="334.088" y="-451.105" font-family="Times,serif" font-size="14.00">Osric</text>
</g>
<!-- Ozma&#45;&gt;Osric -->
<g id="edge29" class="edge"><title>Ozma&#45;&gt;Osric</title>
<path fill="none" stroke="black" d="M249.235,-453.279C263.366,-453.537 281.062,-453.859 296.551,-454.14"/>
<polygon fill="black" stroke="black" points="296.788,-457.645 306.85,-454.328 296.916,-450.646 296.788,-457.645"/>
</g>
<!-- Fiona -->
<g id="node7" class="node"><title>Fiona</title>
<polygon fill="none" stroke="black" points="249.191,-632.805 195.191,-632.805 195.191,-596.805 249.191,-596.805 249.191,-632.805"/>
<text text-anchor="middle" x="222.191" y="-611.105" font-family="Times,serif" font-size="14.00">Fiona</text>
</g>
<!-- Caerlas -->
<g id="node8" class="node"><title>Caerlas</title>
<polygon fill="none" stroke="black" points="362.588,-618.805 305.588,-618.805 305.588,-582.805 362.588,-582.805 362.588,-618.805"/>
<text text-anchor="middle" x="334.088" y="-597.105" font-family="Times,serif" font-size="14.00">Caerlas</text>
</g>
<!-- Fiona&#45;&gt;Caerlas -->
<g id="edge30" class="edge"><title>Fiona&#45;&gt;Caerlas</title>
<path fill="none" stroke="black" d="M249.235,-611.488C262.953,-609.74 280.031,-607.564 295.189,-605.634"/>
<polygon fill="black" stroke="black" points="295.833,-609.08 305.31,-604.344 294.948,-602.136 295.833,-609.08"/>
</g>
<!-- Hadrian -->
<g id="node20" class="node"><title>Hadrian</title>
<polygon fill="none" stroke="blue" points="484.088,-610.805 424.088,-610.805 424.088,-574.805 484.088,-574.805 484.088,-610.805"/>
<text text-anchor="middle" x="454.088" y="-589.105" font-family="Times,serif" font-size="14.00">Hadrian</text>
</g>
<!-- Caerlas&#45;&gt;Hadrian -->
<g id="edge59" class="edge"><title>Caerlas&#45;&gt;Hadrian</title>
<path fill="none" stroke="#c71585" d="M362.754,-598.93C377.985,-597.897 397.141,-596.598 413.889,-595.463"/>
<polygon fill="#c71585" stroke="#c71585" points="414.209,-598.949 423.949,-594.781 413.735,-591.965 414.209,-598.949"/>
</g>
<!-- Jillian -->
<g id="node10" class="node"><title>Jillian</title>
<polygon fill="none" stroke="black" points="481.088,-1178.81 427.088,-1178.81 427.088,-1142.81 481.088,-1142.81 481.088,-1178.81"/>
<text text-anchor="middle" x="454.088" y="-1157.11" font-family="Times,serif" font-size="14.00">Jillian</text>
</g>
<!-- Steven -->
<g id="node11" class="node"><title>Steven</title>
<polygon fill="none" stroke="black" points="481.088,-794.805 427.088,-794.805 427.088,-758.805 481.088,-758.805 481.088,-794.805"/>
<text text-anchor="middle" x="454.088" y="-773.105" font-family="Times,serif" font-size="14.00">Steven</text>
</g>
<!-- Pyar -->
<g id="node12" class="node"><title>Pyar</title>
<polygon fill="none" stroke="black" points="361.088,-180.805 307.088,-180.805 307.088,-144.805 361.088,-144.805 361.088,-180.805"/>
<text text-anchor="middle" x="334.088" y="-159.105" font-family="Times,serif" font-size="14.00">Pyar</text>
</g>
<!-- Julia -->
<g id="node13" class="node"><title>Julia</title>
<polygon fill="none" stroke="black" points="361.088,-1018.81 307.088,-1018.81 307.088,-982.805 361.088,-982.805 361.088,-1018.81"/>
<text text-anchor="middle" x="334.088" y="-997.105" font-family="Times,serif" font-size="14.00">Julia</text>
</g>
<!-- Catherine -->
<g id="node14" class="node"><title>Catherine</title>
<polygon fill="none" stroke="black" points="488.588,-994.805 419.588,-994.805 419.588,-958.805 488.588,-958.805 488.588,-994.805"/>
<text text-anchor="middle" x="454.088" y="-973.105" font-family="Times,serif" font-size="14.00">Catherine</text>
</g>
<!-- Julia&#45;&gt;Catherine -->
<g id="edge96" class="edge"><title>Julia&#45;&gt;Catherine</title>
<path fill="none" stroke="black" d="M361.276,-995.479C375.446,-992.597 393.317,-988.962 409.519,-985.667"/>
<polygon fill="black" stroke="black" points="410.242,-989.092 419.343,-983.669 408.846,-982.232 410.242,-989.092"/>
</g>
<!-- Damien -->
<g id="node28" class="node"><title>Damien</title>
<polygon fill="none" stroke="green" points="484.088,-1340.81 424.088,-1340.81 424.088,-1304.81 484.088,-1304.81 484.088,-1340.81"/>
<text text-anchor="middle" x="454.088" y="-1319.11" font-family="Times,serif" font-size="14.00">Damien</text>
</g>
<!-- Julia&#45;&gt;Damien -->
<g id="edge97" class="edge"><title>Julia&#45;&gt;Damien</title>
<path fill="none" stroke="black" d="M345.653,-1018.94C354.42,-1034.77 366.55,-1058.62 373.588,-1080.81 402.887,-1173.15 355.636,-1215.33 409.588,-1295.81 411.42,-1298.54 413.63,-1301.04 416.072,-1303.33"/>
<polygon fill="black" stroke="black" points="413.929,-1306.1 423.945,-1309.55 418.269,-1300.61 413.929,-1306.1"/>
</g>
<!-- Valentine -->
<g id="node15" class="node"><title>Valentine</title>
<polygon fill="none" stroke="black" points="488.588,-1286.81 419.588,-1286.81 419.588,-1250.81 488.588,-1250.81 488.588,-1286.81"/>
<text text-anchor="middle" x="454.088" y="-1265.11" font-family="Times,serif" font-size="14.00">Valentine</text>
</g>
<!-- Leo -->
<g id="node16" class="node"><title>Leo</title>
<polygon fill="none" stroke="black" points="481.088,-664.805 427.088,-664.805 427.088,-628.805 481.088,-628.805 481.088,-664.805"/>
<text text-anchor="middle" x="454.088" y="-643.105" font-family="Times,serif" font-size="14.00">Leo</text>
</g>
<!-- Karanne -->
<g id="node68" class="node"><title>Karanne</title>
<text text-anchor="middle" x="573.585" y="-447.105" font-family="Times,serif" font-size="14.00">Karanne</text>
</g>
<!-- Leo&#45;&gt;Karanne -->
<g id="edge116" class="edge"><title>Leo&#45;&gt;Karanne</title>
<path fill="none" stroke="black" d="M481.443,-633.976C487.637,-630.064 493.815,-625.314 498.588,-619.805 535.051,-577.725 556.115,-514.865 565.879,-478.851"/>
<polygon fill="black" stroke="black" points="569.307,-479.576 568.444,-469.016 562.533,-477.809 569.307,-479.576"/>
</g>
<!-- Loviatar -->
<g id="node17" class="node"><title>Loviatar</title>
<polygon fill="none" stroke="black" points="485.088,-210.805 423.088,-210.805 423.088,-174.805 485.088,-174.805 485.088,-210.805"/>
<text text-anchor="middle" x="454.088" y="-189.105" font-family="Times,serif" font-size="14.00">Loviatar</text>
</g>
<!-- Loviatar&#45;&gt;Karanne -->
<g id="edge117" class="edge"><title>Loviatar&#45;&gt;Karanne</title>
<path fill="none" stroke="black" d="M467.856,-210.9C477.196,-224.68 489.732,-244.361 498.588,-262.805 519.397,-306.142 516.861,-320.119 534.588,-364.805 542.437,-384.591 552.15,-406.535 559.79,-423.305"/>
<polygon fill="black" stroke="black" points="556.668,-424.895 564.019,-432.525 563.031,-421.976 556.668,-424.895"/>
</g>
<!-- Oberon -->
<g id="node18" class="node"><title>Oberon</title>
<polygon fill="none" stroke="black" points="482.588,-1124.81 425.588,-1124.81 425.588,-1088.81 482.588,-1088.81 482.588,-1124.81"/>
<text text-anchor="middle" x="454.088" y="-1103.11" font-family="Times,serif" font-size="14.00" fill="red">Oberon</text>
</g>
<!-- Random -->
<g id="node34" class="node"><title>Random</title>
<text text-anchor="middle" x="573.585" y="-1165.11" font-family="Times,serif" font-size="14.00">Random</text>
</g>
<!-- Oberon&#45;&gt;Random -->
<g id="edge4" class="edge"><title>Oberon&#45;&gt;Random</title>
<path fill="none" stroke="crimson" d="M482.636,-1121.34C497.63,-1129.25 516.445,-1139.18 532.986,-1147.91"/>
<polygon fill="crimson" stroke="crimson" points="531.424,-1151.04 541.902,-1152.61 534.691,-1144.85 531.424,-1151.04"/>
</g>
<!-- Mirelle -->
<g id="node35" class="node"><title>Mirelle</title>
<text text-anchor="middle" x="573.585" y="-1111.11" font-family="Times,serif" font-size="14.00">Mirelle</text>
</g>
<!-- Oberon&#45;&gt;Mirelle -->
<g id="edge5" class="edge"><title>Oberon&#45;&gt;Mirelle</title>
<path fill="none" stroke="crimson" d="M482.636,-1108.68C498.139,-1109.74 517.726,-1111.07 534.661,-1112.22"/>
<polygon fill="crimson" stroke="crimson" points="534.588,-1115.73 544.803,-1112.91 535.063,-1108.74 534.588,-1115.73"/>
</g>
<!-- Carlton -->
<g id="node19" class="node"><title>Carlton</title>
<polygon fill="none" stroke="blue" points="362.588,-818.805 305.588,-818.805 305.588,-782.805 362.588,-782.805 362.588,-818.805"/>
<text text-anchor="middle" x="334.088" y="-797.105" font-family="Times,serif" font-size="14.00">Carlton</text>
</g>
<!-- Carlton&#45;&gt;Jillian -->
<g id="edge63" class="edge"><title>Carlton&#45;&gt;Jillian</title>
<path fill="none" stroke="#c71585" d="M362.667,-815.701C366.93,-819.143 370.827,-823.179 373.588,-827.805 443.776,-945.388 336.13,-1018.24 409.588,-1133.81 412.014,-1137.62 415.194,-1140.99 418.732,-1143.93"/>
<polygon fill="#c71585" stroke="#c71585" points="416.712,-1146.79 426.896,-1149.71 420.757,-1141.08 416.712,-1146.79"/>
</g>
<!-- Carlton&#45;&gt;Steven -->
<g id="edge62" class="edge"><title>Carlton&#45;&gt;Steven</title>
<path fill="none" stroke="#c71585" d="M362.754,-795.178C378.926,-791.889 399.523,-787.7 416.964,-784.153"/>
<polygon fill="#c71585" stroke="#c71585" points="417.709,-787.573 426.811,-782.15 416.314,-780.713 417.709,-787.573"/>
</g>
<!-- Rowan -->
<g id="node54" class="node"><title>Rowan</title>
<text text-anchor="middle" x="573.585" y="-969.105" font-family="Times,serif" font-size="14.00">Rowan</text>
</g>
<!-- Carlton&#45;&gt;Rowan -->
<g id="edge64" class="edge"><title>Carlton&#45;&gt;Rowan</title>
<path fill="none" stroke="#c71585" d="M361.394,-818.816C365.517,-821.764 369.698,-824.829 373.588,-827.805 390.129,-840.462 391.823,-846.935 409.588,-857.805 446.275,-880.255 463.198,-871.364 498.588,-895.805 509.784,-903.538 532.467,-927.715 549.783,-946.939"/>
<polygon fill="#c71585" stroke="#c71585" points="547.315,-949.429 556.591,-954.547 552.531,-944.761 547.315,-949.429"/>
</g>
<!-- Hadrian&#45;&gt;Theresa -->
<g id="edge75" class="edge"><title>Hadrian&#45;&gt;Theresa</title>
<path fill="none" stroke="#ff1493" d="M484.343,-579.015C489.714,-575.365 494.809,-570.97 498.588,-565.805 537.041,-513.266 513.358,-485.354 534.588,-423.805 541.529,-403.683 551.258,-381.745 559.134,-365.063"/>
<polygon fill="#ff1493" stroke="#ff1493" points="562.359,-366.433 563.522,-355.902 556.046,-363.409 562.359,-366.433"/>
</g>
<!-- Cera -->
<g id="node58" class="node"><title>Cera</title>
<text text-anchor="middle" x="573.585" y="-751.105" font-family="Times,serif" font-size="14.00">Cera</text>
</g>
<!-- Hadrian&#45;&gt;Cera -->
<g id="edge76" class="edge"><title>Hadrian&#45;&gt;Cera</title>
<path fill="none" stroke="#ff1493" d="M484.32,-607.268C489.565,-610.827 494.617,-615.016 498.588,-619.805 526.88,-653.923 511.332,-675.075 534.588,-712.805 538.042,-718.408 542.287,-723.953 546.674,-729.086"/>
<polygon fill="#ff1493" stroke="#ff1493" points="544.297,-731.677 553.591,-736.764 549.498,-726.992 544.297,-731.677"/>
</g>
<!-- Samantha -->
<g id="node21" class="node"><title>Samantha</title>
<polygon fill="none" stroke="blue" points="489.588,-502.805 418.588,-502.805 418.588,-466.805 489.588,-466.805 489.588,-502.805"/>
<text text-anchor="middle" x="454.088" y="-481.105" font-family="Times,serif" font-size="14.00">Samantha</text>
</g>
<!-- Samantha&#45;&gt;Paulette -->
<g id="edge94" class="edge"><title>Samantha&#45;&gt;Paulette</title>
<path fill="none" stroke="#ff1493" d="M489.988,-502.855C493.208,-505.531 496.165,-508.512 498.588,-511.805 536.41,-563.206 501.782,-596.067 534.588,-650.805 537.285,-655.306 540.734,-659.577 544.45,-663.489"/>
<polygon fill="#ff1493" stroke="#ff1493" points="542.157,-666.139 551.797,-670.534 547.002,-661.087 542.157,-666.139"/>
</g>
<!-- Terrance -->
<g id="node56" class="node"><title>Terrance</title>
<text text-anchor="middle" x="573.585" y="-250.105" font-family="Times,serif" font-size="14.00">Terrance</text>
</g>
<!-- Samantha&#45;&gt;Terrance -->
<g id="edge95" class="edge"><title>Samantha&#45;&gt;Terrance</title>
<path fill="none" stroke="#ff1493" d="M489.611,-467.136C492.987,-464.366 496.082,-461.259 498.588,-457.805 538.093,-403.365 507.526,-372.385 534.588,-310.805 539.23,-300.244 545.809,-289.503 552.191,-280.234"/>
<polygon fill="#ff1493" stroke="#ff1493" points="555.214,-282.024 558.18,-271.853 549.518,-277.954 555.214,-282.024"/>
</g>
<!-- Thessaly -->
<g id="node22" class="node"><title>Thessaly</title>
<polygon fill="none" stroke="blue" points="486.588,-556.805 421.588,-556.805 421.588,-520.805 486.588,-520.805 486.588,-556.805"/>
<text text-anchor="middle" x="454.088" y="-535.105" font-family="Times,serif" font-size="14.00">Thessaly</text>
</g>
<!-- Lily -->
<g id="node23" class="node"><title>Lily</title>
<polygon fill="none" stroke="blue" points="600.585,-1367.81 546.585,-1367.81 546.585,-1331.81 600.585,-1331.81 600.585,-1367.81"/>
<text text-anchor="middle" x="573.585" y="-1346.11" font-family="Times,serif" font-size="14.00">Lily</text>
</g>
<!-- Vale -->
<g id="node24" class="node"><title>Vale</title>
<polygon fill="none" stroke="blue" points="600.585,-1422.81 546.585,-1422.81 546.585,-1386.81 600.585,-1386.81 600.585,-1422.81"/>
<text text-anchor="middle" x="573.585" y="-1401.11" font-family="Times,serif" font-size="14.00">Vale</text>
</g>
<!-- Alan -->
<g id="node66" class="node"><title>Alan</title>
<text text-anchor="middle" x="454.088" y="-81.1054" font-family="Times,serif" font-size="14.00">Alan</text>
</g>
<!-- Alaric&#45;&gt;Alan -->
<g id="edge111" class="edge"><title>Alaric&#45;&gt;Alan</title>
<path fill="none" stroke="black" d="M361.276,-103.479C377.699,-100.139 399.095,-95.7871 417.101,-92.125"/>
<polygon fill="black" stroke="black" points="417.872,-95.5399 426.973,-90.1169 416.476,-88.6803 417.872,-95.5399"/>
</g>
<!-- Columbine -->
<g id="node26" class="node"><title>Columbine</title>
<polygon fill="none" stroke="blue" points="612.085,-641.805 535.085,-641.805 535.085,-605.805 612.085,-605.805 612.085,-641.805"/>
<text text-anchor="middle" x="573.585" y="-620.105" font-family="Times,serif" font-size="14.00">Columbine</text>
</g>
<!-- Damiana -->
<g id="node27" class="node"><title>Damiana</title>
<polygon fill="none" stroke="green" points="487.088,-1232.81 421.088,-1232.81 421.088,-1196.81 487.088,-1196.81 487.088,-1232.81"/>
<text text-anchor="middle" x="454.088" y="-1211.11" font-family="Times,serif" font-size="14.00">Damiana</text>
</g>
<!-- Damiana&#45;&gt;Lily -->
<g id="edge100" class="edge"><title>Damiana&#45;&gt;Lily</title>
<path fill="none" stroke="black" d="M487.218,-1231.67C491.356,-1234.69 495.292,-1238.08 498.588,-1241.81 523.875,-1270.41 510.955,-1289.82 534.588,-1319.81 535.983,-1321.58 537.503,-1323.3 539.105,-1324.98"/>
<polygon fill="black" stroke="black" points="536.851,-1327.66 546.537,-1331.96 541.644,-1322.56 536.851,-1327.66"/>
</g>
<!-- Damiana&#45;&gt;Vale -->
<g id="edge101" class="edge"><title>Damiana&#45;&gt;Vale</title>
<path fill="none" stroke="black" d="M487.391,-1230.84C491.606,-1234.01 495.518,-1237.66 498.588,-1241.81 535.57,-1291.69 499.62,-1325.49 534.588,-1376.81 535.863,-1378.68 537.305,-1380.47 538.863,-1382.18"/>
<polygon fill="black" stroke="black" points="536.593,-1384.85 546.283,-1389.13 541.38,-1379.74 536.593,-1384.85"/>
</g>
<!-- Damiana&#45;&gt;Columbine -->
<g id="edge104" class="edge"><title>Damiana&#45;&gt;Columbine</title>
<path fill="none" stroke="black" d="M487.275,-1199.92C491.731,-1196.55 495.747,-1192.53 498.588,-1187.81 559.332,-1086.84 483.636,-765.047 534.588,-658.805 536.195,-655.454 538.278,-652.271 540.639,-649.289"/>
<polygon fill="black" stroke="black" points="543.241,-651.63 547.408,-641.889 538.076,-646.906 543.241,-651.63"/>
</g>
<!-- Gaspar -->
<g id="node29" class="node"><title>Gaspar</title>
<polygon fill="none" stroke="green" points="601.085,-1310.81 546.085,-1310.81 546.085,-1274.81 601.085,-1274.81 601.085,-1310.81"/>
<text text-anchor="middle" x="573.585" y="-1289.11" font-family="Times,serif" font-size="14.00">Gaspar</text>
</g>
<!-- Damiana&#45;&gt;Gaspar -->
<g id="edge109" class="edge"><title>Damiana&#45;&gt;Gaspar</title>
<path fill="none" stroke="black" d="M484.692,-1232.92C489.365,-1235.85 494.126,-1238.89 498.588,-1241.81 511.847,-1250.48 526.233,-1260.3 538.763,-1268.99"/>
<polygon fill="black" stroke="black" points="536.899,-1271.96 547.106,-1274.8 540.898,-1266.21 536.899,-1271.96"/>
</g>
<!-- Damiana&#45;&gt;Random -->
<g id="edge102" class="edge"><title>Damiana&#45;&gt;Random</title>
<path fill="none" stroke="black" d="M487.195,-1202.24C501.129,-1196.78 517.6,-1190.33 532.341,-1184.56"/>
<polygon fill="black" stroke="black" points="533.697,-1187.79 541.733,-1180.88 531.145,-1181.27 533.697,-1187.79"/>
</g>
<!-- Damiana&#45;&gt;Mirelle -->
<g id="edge103" class="edge"><title>Damiana&#45;&gt;Mirelle</title>
<path fill="none" stroke="black" d="M487.378,-1196.57C491.31,-1193.84 495.147,-1190.89 498.588,-1187.81 517.914,-1170.47 515.811,-1159.73 534.588,-1141.81 535.378,-1141.05 536.191,-1140.3 537.021,-1139.56"/>
<polygon fill="black" stroke="black" points="539.382,-1142.15 544.851,-1133.07 534.917,-1136.76 539.382,-1142.15"/>
</g>
<!-- Damiana&#45;&gt;Rowan -->
<g id="edge107" class="edge"><title>Damiana&#45;&gt;Rowan</title>
<path fill="none" stroke="black" d="M487.507,-1198.85C491.706,-1195.67 495.582,-1191.99 498.588,-1187.81 539.57,-1130.7 507.646,-1098.73 534.588,-1033.81 539.508,-1021.95 546.609,-1009.77 553.344,-999.448"/>
<polygon fill="black" stroke="black" points="556.416,-1001.15 559.104,-990.905 550.612,-997.239 556.416,-1001.15"/>
</g>
<!-- Damiana&#45;&gt;Cera -->
<g id="edge108" class="edge"><title>Damiana&#45;&gt;Cera</title>
<path fill="none" stroke="black" d="M487.172,-1199.86C491.64,-1196.49 495.687,-1192.49 498.588,-1187.81 588.825,-1042.06 471.56,-963.212 534.588,-803.805 537.705,-795.922 542.5,-788.252 547.646,-781.41"/>
<polygon fill="black" stroke="black" points="550.69,-783.211 554.251,-773.233 545.245,-778.812 550.69,-783.211"/>
</g>
<!-- Aurora -->
<g id="node63" class="node"><title>Aurora</title>
<text text-anchor="middle" x="573.585" y="-1057.11" font-family="Times,serif" font-size="14.00">Aurora</text>
</g>
<!-- Damiana&#45;&gt;Aurora -->
<g id="edge106" class="edge"><title>Damiana&#45;&gt;Aurora</title>
<path fill="none" stroke="black" d="M487.52,-1198.2C491.614,-1195.14 495.457,-1191.67 498.588,-1187.81 528.306,-1151.09 506.028,-1125.43 534.588,-1087.81 535.665,-1086.39 536.837,-1085.01 538.08,-1083.69"/>
<polygon fill="black" stroke="black" points="540.787,-1085.95 545.809,-1076.63 536.066,-1080.79 540.787,-1085.95"/>
</g>
<!-- Althea -->
<g id="node64" class="node"><title>Althea</title>
<text text-anchor="middle" x="573.585" y="-1230.11" font-family="Times,serif" font-size="14.00">Althea</text>
</g>
<!-- Damiana&#45;&gt;Althea -->
<g id="edge105" class="edge"><title>Damiana&#45;&gt;Althea</title>
<path fill="none" stroke="black" d="M487.195,-1220C502.467,-1222.47 520.786,-1225.43 536.534,-1227.98"/>
<polygon fill="black" stroke="black" points="536.023,-1231.44 546.454,-1229.58 537.141,-1224.53 536.023,-1231.44"/>
</g>
<!-- Damien&#45;&gt;Gaspar -->
<g id="edge113" class="edge"><title>Damien&#45;&gt;Gaspar</title>
<path fill="none" stroke="black" d="M484.132,-1315.39C499.777,-1311.4 519.236,-1306.43 535.916,-1302.17"/>
<polygon fill="black" stroke="black" points="537.061,-1305.49 545.884,-1299.62 535.329,-1298.71 537.061,-1305.49"/>
</g>
<!-- Damien&#45;&gt;Althea -->
<g id="edge112" class="edge"><title>Damien&#45;&gt;Althea</title>
<path fill="none" stroke="black" d="M484.478,-1305.36C489.27,-1302.29 494.124,-1299.04 498.588,-1295.81 499.809,-1294.92 523.038,-1275.44 543.147,-1258.55"/>
<polygon fill="black" stroke="black" points="545.526,-1261.12 550.931,-1252.01 541.023,-1255.76 545.526,-1261.12"/>
</g>
<!-- Benedict -->
<g id="node30" class="node"><title>Benedict</title>
<text text-anchor="middle" x="222.191" y="-557.105" font-family="Times,serif" font-size="14.00" fill="red">Benedict</text>
</g>
<!-- Benedict&#45;&gt;Caerlas -->
<g id="edge48" class="edge"><title>Benedict&#45;&gt;Caerlas</title>
<path fill="none" stroke="red" d="M254.978,-572.375C267.708,-577.008 282.468,-582.381 295.707,-587.2"/>
<polygon fill="red" stroke="red" points="294.882,-590.624 305.476,-590.755 297.277,-584.046 294.882,-590.624"/>
</g>
<!-- Benedict&#45;&gt;Osric -->
<g id="edge51" class="edge"><title>Benedict&#45;&gt;Osric</title>
<path fill="none" stroke="red" d="M249.144,-542.541C252.464,-539.77 255.706,-536.824 258.588,-533.805 278.001,-513.477 274.772,-501.742 294.588,-481.805 295.969,-480.416 297.43,-479.049 298.943,-477.714"/>
<polygon fill="red" stroke="red" points="301.253,-480.348 306.82,-471.333 296.846,-474.909 301.253,-480.348"/>
</g>
<!-- Benedict&#45;&gt;Carlton -->
<g id="edge50" class="edge"><title>Benedict&#45;&gt;Carlton</title>
<path fill="none" stroke="red" d="M251.449,-579.07C254.166,-581.733 256.633,-584.653 258.588,-587.805 302.97,-659.36 248.783,-703.154 294.588,-773.805 295.565,-775.312 296.659,-776.76 297.841,-778.147"/>
<polygon fill="red" stroke="red" points="295.768,-781.009 305.4,-785.422 300.623,-775.966 295.768,-781.009"/>
</g>
<!-- Alia -->
<g id="node41" class="node"><title>Alia</title>
<text text-anchor="middle" x="334.088" y="-397.105" font-family="Times,serif" font-size="14.00">Alia</text>
</g>
<!-- Benedict&#45;&gt;Alia -->
<g id="edge53" class="edge"><title>Benedict&#45;&gt;Alia</title>
<path fill="none" stroke="red" d="M250.683,-542.588C253.608,-539.885 256.333,-536.943 258.588,-533.805 287.63,-493.407 264.744,-467.615 294.588,-427.805 295.981,-425.948 297.539,-424.17 299.209,-422.477"/>
<polygon fill="red" stroke="red" points="301.843,-424.823 307.078,-415.612 297.242,-419.548 301.843,-424.823"/>
</g>
<!-- Beryllium -->
<g id="node48" class="node"><title>Beryllium</title>
<text text-anchor="middle" x="334.088" y="-213.105" font-family="Times,serif" font-size="14.00">Beryllium</text>
</g>
<!-- Benedict&#45;&gt;Beryllium -->
<g id="edge52" class="edge"><title>Benedict&#45;&gt;Beryllium</title>
<path fill="none" stroke="red" d="M251.604,-542.635C254.293,-539.955 256.711,-537.005 258.588,-533.805 315.835,-436.22 257.038,-388.529 294.588,-281.805 299.294,-268.431 306.891,-254.761 314.098,-243.431"/>
<polygon fill="red" stroke="red" points="317.143,-245.17 319.731,-234.896 311.301,-241.314 317.143,-245.17"/>
</g>
<!-- Beauregard -->
<g id="node49" class="node"><title>Beauregard</title>
<text text-anchor="middle" x="334.088" y="-689.105" font-family="Times,serif" font-size="14.00">Beauregard</text>
</g>
<!-- Benedict&#45;&gt;Beauregard -->
<g id="edge47" class="edge"><title>Benedict&#45;&gt;Beauregard</title>
<path fill="none" stroke="red" d="M249.111,-579.101C252.437,-581.867 255.688,-584.804 258.588,-587.805 281.792,-611.825 303.288,-643.574 317.166,-665.848"/>
<polygon fill="red" stroke="red" points="314.241,-667.775 322.452,-674.47 320.209,-664.116 314.241,-667.775"/>
</g>
<!-- Cyndia -->
<g id="node51" class="node"><title>Cyndia</title>
<text text-anchor="middle" x="334.088" y="-505.105" font-family="Times,serif" font-size="14.00">Cyndia</text>
</g>
<!-- Benedict&#45;&gt;Cyndia -->
<g id="edge49" class="edge"><title>Benedict&#45;&gt;Cyndia</title>
<path fill="none" stroke="red" d="M254.978,-545.765C267.935,-539.634 282.995,-532.508 296.414,-526.159"/>
<polygon fill="red" stroke="red" points="298.299,-529.139 305.841,-521.698 295.305,-522.811 298.299,-529.139"/>
</g>
<!-- Dana -->
<g id="node31" class="node"><title>Dana</title>
<text text-anchor="middle" x="27" y="-611.105" font-family="Times,serif" font-size="14.00">Dana</text>
</g>
<!-- Dana&#45;&gt;Duke -->
<g id="edge2" class="edge"><title>Dana&#45;&gt;Duke</title>
<path fill="none" stroke="black" d="M39.3284,-633.001C55.3034,-658.66 84.5323,-705.608 102.77,-734.901"/>
<polygon fill="black" stroke="black" points="100.018,-737.103 108.274,-743.743 105.96,-733.403 100.018,-737.103"/>
</g>
<!-- Aurelia -->
<g id="node32" class="node"><title>Aurelia</title>
<text text-anchor="middle" x="119.897" y="-611.105" font-family="Times,serif" font-size="14.00">Aurelia</text>
</g>
<!-- Dana&#45;&gt;Aurelia -->
<g id="edge1" class="edge"><title>Dana&#45;&gt;Aurelia</title>
<path fill="none" stroke="black" d="M54.2913,-614.805C62.5822,-614.805 71.9142,-614.805 80.8534,-614.805"/>
<polygon fill="black" stroke="black" points="81.081,-618.306 91.081,-614.805 81.0809,-611.306 81.081,-618.306"/>
</g>
<!-- Bast -->
<g id="node33" class="node"><title>Bast</title>
<text text-anchor="middle" x="119.897" y="-305.105" font-family="Times,serif" font-size="14.00">Bast</text>
</g>
<!-- Dana&#45;&gt;Bast -->
<g id="edge3" class="edge"><title>Dana&#45;&gt;Bast</title>
<path fill="none" stroke="black" d="M33.4138,-596.58C48.6967,-545.131 92.2484,-398.518 110.592,-336.766"/>
<polygon fill="black" stroke="black" points="114.019,-337.518 113.512,-326.935 107.309,-335.525 114.019,-337.518"/>
</g>
<!-- Aurelia&#45;&gt;Isis -->
<g id="edge20" class="edge"><title>Aurelia&#45;&gt;Isis</title>
<path fill="none" stroke="black" d="M120.663,-596.761C121.145,-554.974 128.387,-450.867 185.795,-394.805 202.597,-378.397 349.571,-345.07 418.138,-330.227"/>
<polygon fill="black" stroke="black" points="419.011,-333.619 428.05,-328.092 417.537,-326.776 419.011,-333.619"/>
</g>
<!-- Aurelia&#45;&gt;Brandy -->
<g id="edge17" class="edge"><title>Aurelia&#45;&gt;Brandy</title>
<path fill="none" stroke="black" d="M122.527,-596.682C130.057,-514.198 162.11,-176.517 185.795,-135.805 187.087,-133.584 188.641,-131.484 190.366,-129.512"/>
<polygon fill="black" stroke="black" points="192.852,-131.978 197.682,-122.549 188.026,-126.908 192.852,-131.978"/>
</g>
<!-- Aurelia&#45;&gt;Ozma -->
<g id="edge7" class="edge"><title>Aurelia&#45;&gt;Ozma</title>
<path fill="none" stroke="black" d="M126.537,-596.684C135.711,-569.252 155.901,-516.499 185.795,-479.805 186.478,-478.967 187.193,-478.139 187.933,-477.323"/>
<polygon fill="black" stroke="black" points="190.387,-479.819 195.141,-470.35 185.52,-474.788 190.387,-479.819"/>
</g>
<!-- Aurelia&#45;&gt;Fiona -->
<g id="edge8" class="edge"><title>Aurelia&#45;&gt;Fiona</title>
<path fill="none" stroke="black" d="M148.569,-614.805C159.78,-614.805 172.881,-614.805 184.845,-614.805"/>
<polygon fill="black" stroke="black" points="184.991,-618.306 194.991,-614.805 184.991,-611.306 184.991,-618.306"/>
</g>
<!-- Aurelia&#45;&gt;Julia -->
<g id="edge19" class="edge"><title>Aurelia&#45;&gt;Julia</title>
<path fill="none" stroke="black" d="M125.267,-632.819C138.665,-687.839 178.691,-850.524 185.795,-859.805 208.495,-889.468 232.976,-874.618 258.588,-901.805 283.121,-927.847 271.229,-946.707 294.588,-973.805 295.907,-975.336 297.332,-976.823 298.828,-978.26"/>
<polygon fill="black" stroke="black" points="296.875,-981.194 306.759,-985.008 301.411,-975.862 296.875,-981.194"/>
</g>
<!-- Beryl -->
<g id="node36" class="node"><title>Beryl</title>
<text text-anchor="middle" x="222.191" y="-213.105" font-family="Times,serif" font-size="14.00">Beryl</text>
</g>
<!-- Aurelia&#45;&gt;Beryl -->
<g id="edge6" class="edge"><title>Aurelia&#45;&gt;Beryl</title>
<path fill="none" stroke="black" d="M123.293,-596.66C130.035,-547.746 150.978,-409.386 185.795,-298.805 191.695,-280.066 200.425,-259.789 207.739,-244.088"/>
<polygon fill="black" stroke="black" points="210.947,-245.492 212.072,-234.957 204.623,-242.491 210.947,-245.492"/>
</g>
<!-- Aurelia&#45;&gt;Erica -->
<g id="edge9" class="edge"><title>Aurelia&#45;&gt;Erica</title>
<path fill="none" stroke="black" d="M125.421,-632.922C131.212,-656.227 141.489,-697.976 149.795,-733.805 166.549,-806.079 148.509,-832.665 185.795,-896.805 187.07,-898.999 188.546,-901.125 190.158,-903.17"/>
<polygon fill="black" stroke="black" points="187.595,-905.553 196.902,-910.614 192.782,-900.854 187.595,-905.553"/>
</g>
<!-- Aurelia&#45;&gt;Coral -->
<g id="edge10" class="edge"><title>Aurelia&#45;&gt;Coral</title>
<path fill="none" stroke="black" d="M128.97,-632.892C139.918,-656.347 160.981,-697.909 185.795,-728.805 187.594,-731.046 189.556,-733.267 191.603,-735.432"/>
<polygon fill="black" stroke="black" points="189.207,-737.985 198.778,-742.529 194.129,-733.008 189.207,-737.985"/>
</g>
<!-- Aurelia&#45;&gt;Cynthia -->
<g id="edge11" class="edge"><title>Aurelia&#45;&gt;Cynthia</title>
<path fill="none" stroke="black" d="M133.426,-596.701C145.73,-579.557 165.553,-553.57 185.795,-533.805 186.569,-533.049 187.364,-532.295 188.176,-531.545"/>
<polygon fill="black" stroke="black" points="190.524,-534.143 195.805,-524.958 185.949,-528.844 190.524,-534.143"/>
</g>
<!-- Aurelia&#45;&gt;Derek -->
<g id="edge12" class="edge"><title>Aurelia&#45;&gt;Derek</title>
<path fill="none" stroke="black" d="M125.742,-632.852C131.872,-656.084 142.506,-697.755 149.795,-733.805 169.603,-831.779 142.418,-865.752 185.795,-955.805 187.962,-960.305 190.816,-964.661 193.965,-968.728"/>
<polygon fill="black" stroke="black" points="191.56,-971.3 200.718,-976.627 196.88,-966.752 191.56,-971.3"/>
</g>
<!-- Aurelia&#45;&gt;Alia -->
<g id="edge13" class="edge"><title>Aurelia&#45;&gt;Alia</title>
<path fill="none" stroke="black" d="M121.334,-596.656C123.3,-558.567 133.569,-470.16 185.795,-425.805 216.478,-399.746 264.095,-396.096 296.836,-397.261"/>
<polygon fill="black" stroke="black" points="296.734,-400.76 306.903,-397.786 297.099,-393.77 296.734,-400.76"/>
</g>
<!-- Finndo -->
<g id="node42" class="node"><title>Finndo</title>
<text text-anchor="middle" x="334.088" y="-305.105" font-family="Times,serif" font-size="14.00">Finndo</text>
</g>
<!-- Aurelia&#45;&gt;Finndo -->
<g id="edge14" class="edge"><title>Aurelia&#45;&gt;Finndo</title>
<path fill="none" stroke="black" d="M122.712,-596.522C128.576,-541.19 148.814,-377.104 185.795,-340.805 214.864,-312.273 263.037,-306.607 296.336,-306.549"/>
<polygon fill="black" stroke="black" points="296.529,-310.053 306.582,-306.706 296.636,-303.053 296.529,-310.053"/>
</g>
<!-- Blaze -->
<g id="node43" class="node"><title>Blaze</title>
<text text-anchor="middle" x="334.088" y="-743.105" font-family="Times,serif" font-size="14.00">Blaze</text>
</g>
<!-- Aurelia&#45;&gt;Blaze -->
<g id="edge15" class="edge"><title>Aurelia&#45;&gt;Blaze</title>
<path fill="none" stroke="black" d="M131.281,-633.082C142.531,-651.357 162.088,-679.083 185.795,-695.805 219.47,-719.559 265.203,-733.1 296.731,-740.172"/>
<polygon fill="black" stroke="black" points="296.331,-743.665 306.841,-742.328 297.791,-736.819 296.331,-743.665"/>
</g>
<!-- Llewellyn -->
<g id="node44" class="node"><title>Llewellyn</title>
<text text-anchor="middle" x="222.191" y="-159.105" font-family="Times,serif" font-size="14.00">Llewellyn</text>
</g>
<!-- Aurelia&#45;&gt;Llewellyn -->
<g id="edge16" class="edge"><title>Aurelia&#45;&gt;Llewellyn</title>
<path fill="none" stroke="black" d="M122.852,-596.711C131.228,-520.199 164.614,-225.515 185.795,-189.805 185.972,-189.506 186.154,-189.209 186.341,-188.915"/>
<polygon fill="black" stroke="black" points="189.195,-190.953 192.809,-180.994 183.773,-186.525 189.195,-190.953"/>
</g>
<!-- Flavius -->
<g id="node45" class="node"><title>Flavius</title>
<text text-anchor="middle" x="334.088" y="-943.105" font-family="Times,serif" font-size="14.00">Flavius</text>
</g>
<!-- Aurelia&#45;&gt;Flavius -->
<g id="edge18" class="edge"><title>Aurelia&#45;&gt;Flavius</title>
<path fill="none" stroke="black" d="M124.888,-632.847C134.997,-677.385 162.469,-791.163 185.795,-821.805 209.12,-852.448 228.908,-844.267 258.588,-868.805 277.638,-884.555 296.849,-904.799 310.99,-920.716"/>
<polygon fill="black" stroke="black" points="308.674,-923.383 317.896,-928.598 313.939,-918.77 308.674,-923.383"/>
</g>
<!-- Guinevere -->
<g id="node46" class="node"><title>Guinevere</title>
<text text-anchor="middle" x="334.088" y="-851.105" font-family="Times,serif" font-size="14.00">Guinevere</text>
</g>
<!-- Aurelia&#45;&gt;Guinevere -->
<g id="edge21" class="edge"><title>Aurelia&#45;&gt;Guinevere</title>
<path fill="none" stroke="black" d="M123.075,-632.861C128.107,-667.209 143.531,-742.564 185.795,-787.805 200.451,-803.494 250.11,-824.331 287.751,-838.578"/>
<polygon fill="black" stroke="black" points="286.929,-842.007 297.521,-842.231 289.38,-835.45 286.929,-842.007"/>
</g>
<!-- Chance -->
<g id="node47" class="node"><title>Chance</title>
<text text-anchor="middle" x="222.191" y="-665.105" font-family="Times,serif" font-size="14.00">Chance</text>
</g>
<!-- Aurelia&#45;&gt;Chance -->
<g id="edge22" class="edge"><title>Aurelia&#45;&gt;Chance</title>
<path fill="none" stroke="black" d="M148.569,-629.704C159.75,-635.724 172.811,-642.757 184.75,-649.184"/>
<polygon fill="black" stroke="black" points="183.146,-652.296 193.61,-653.955 186.465,-646.133 183.146,-652.296"/>
</g>
<!-- Kipo -->
<g id="node67" class="node"><title>Kipo</title>
<text text-anchor="middle" x="222.191" y="-51.1054" font-family="Times,serif" font-size="14.00">Kipo</text>
</g>
<!-- Bast&#45;&gt;Kipo -->
<g id="edge115" class="edge"><title>Bast&#45;&gt;Kipo</title>
<path fill="none" stroke="black" d="M122.222,-290.691C125.969,-249.98 139.587,-149.519 185.795,-81.8054 186.426,-80.8797 187.1,-79.9723 187.809,-79.084"/>
<polygon fill="black" stroke="black" points="190.561,-81.2706 194.957,-71.6305 185.509,-76.4255 190.561,-81.2706"/>
</g>
<!-- Kieron -->
<g id="node65" class="node"><title>Kieron</title>
<text text-anchor="middle" x="675.581" y="-996.105" font-family="Times,serif" font-size="14.00">Kieron</text>
</g>
<!-- Random&#45;&gt;Kieron -->
<g id="edge110" class="edge"><title>Random&#45;&gt;Kieron</title>
<path fill="none" stroke="#ff1493" stroke-dasharray="1,5" d="M603.843,-1150.59C607.025,-1147.89 610.03,-1144.95 612.581,-1141.81 640.502,-1107.44 658.149,-1058.57 667.192,-1028.05"/>
<polygon fill="#ff1493" stroke="#ff1493" points="670.66,-1028.64 670.034,-1018.07 663.928,-1026.73 670.66,-1028.64"/>
</g>
<!-- Beryl&#45;&gt;Pyar -->
<g id="edge28" class="edge"><title>Beryl&#45;&gt;Pyar</title>
<path fill="none" stroke="black" d="M249.235,-204.008C263.638,-196.931 281.744,-188.035 297.442,-180.321"/>
<polygon fill="black" stroke="black" points="299.419,-183.249 306.85,-175.698 296.332,-176.967 299.419,-183.249"/>
</g>
<!-- Beryl&#45;&gt;Beryllium -->
<g id="edge27" class="edge"><title>Beryl&#45;&gt;Beryllium</title>
<path fill="none" stroke="black" d="M249.235,-216.805C260.755,-216.805 274.643,-216.805 287.774,-216.805"/>
<polygon fill="black" stroke="black" points="288.083,-220.306 298.083,-216.805 288.083,-213.306 288.083,-220.306"/>
</g>
<!-- Erica&#45;&gt;Valentine -->
<g id="edge33" class="edge"><title>Erica&#45;&gt;Valentine</title>
<path fill="none" stroke="black" d="M243.426,-947.103C249.091,-953.182 254.744,-960.323 258.588,-967.805 293.29,-1035.34 257.068,-1068.8 294.588,-1134.81 322.2,-1183.38 374.517,-1222.28 411.479,-1245.39"/>
<polygon fill="black" stroke="black" points="409.696,-1248.41 420.051,-1250.65 413.353,-1242.44 409.696,-1248.41"/>
</g>
<!-- Erica&#45;&gt;Beauregard -->
<g id="edge31" class="edge"><title>Erica&#45;&gt;Beauregard</title>
<path fill="none" stroke="black" d="M227.839,-910.64C239.555,-865.787 271.043,-751.154 294.588,-719.805 294.956,-719.316 295.335,-718.832 295.725,-718.353"/>
<polygon fill="black" stroke="black" points="298.318,-720.708 302.802,-711.108 293.311,-715.816 298.318,-720.708"/>
</g>
<!-- Francesca -->
<g id="node50" class="node"><title>Francesca</title>
<text text-anchor="middle" x="334.088" y="-1104.11" font-family="Times,serif" font-size="14.00">Francesca</text>
</g>
<!-- Erica&#45;&gt;Francesca -->
<g id="edge32" class="edge"><title>Erica&#45;&gt;Francesca</title>
<path fill="none" stroke="black" d="M241.47,-947.052C247.298,-953.346 253.538,-960.626 258.588,-967.805 272.452,-987.515 302.188,-1045.73 319.608,-1080.57"/>
<polygon fill="black" stroke="black" points="316.579,-1082.34 324.172,-1089.73 322.844,-1079.22 316.579,-1082.34"/>
</g>
<!-- Coral&#45;&gt;Leo -->
<g id="edge35" class="edge"><title>Coral&#45;&gt;Leo</title>
<path fill="none" stroke="black" d="M231.277,-742.556C242.181,-720.318 263.842,-683.524 294.588,-665.805 332.073,-644.203 382.779,-641.882 416.644,-643.359"/>
<polygon fill="black" stroke="black" points="416.825,-646.875 427.009,-643.953 417.225,-639.886 416.825,-646.875"/>
</g>
<!-- Coral&#45;&gt;Carlton -->
<g id="edge34" class="edge"><title>Coral&#45;&gt;Carlton</title>
<path fill="none" stroke="black" d="M249.235,-770.285C263.085,-775.326 280.36,-781.614 295.625,-787.17"/>
<polygon fill="black" stroke="black" points="294.716,-790.563 305.31,-790.695 297.11,-783.986 294.716,-790.563"/>
</g>
<!-- Cynthia&#45;&gt;Loviatar -->
<g id="edge38" class="edge"><title>Cynthia&#45;&gt;Loviatar</title>
<path fill="none" stroke="black" d="M251.484,-488.563C254.195,-485.896 256.651,-482.969 258.588,-479.805 305.301,-403.53 240.377,-352.947 294.588,-281.805 318.203,-250.816 339.572,-262.804 373.588,-243.805 388.503,-235.475 404.445,-225.479 418.107,-216.552"/>
<polygon fill="black" stroke="black" points="420.303,-219.297 426.723,-210.869 416.448,-213.454 420.303,-219.297"/>
</g>
<!-- Cynthia&#45;&gt;Samantha -->
<g id="edge37" class="edge"><title>Cynthia&#45;&gt;Samantha</title>
<path fill="none" stroke="black" d="M251.932,-521.437C264.655,-527.128 280.013,-532.958 294.588,-535.805 329.048,-542.537 339.984,-545.98 373.588,-535.805 391.993,-530.233 393.417,-522.211 409.588,-511.805 411.27,-510.723 412.992,-509.623 414.735,-508.515"/>
<polygon fill="black" stroke="black" points="416.93,-511.269 423.524,-502.976 413.198,-505.347 416.93,-511.269"/>
</g>
<!-- Cynthia&#45;&gt;Cyndia -->
<g id="edge36" class="edge"><title>Cynthia&#45;&gt;Cyndia</title>
<path fill="none" stroke="black" d="M251.779,-507.326C265.187,-507.57 281.339,-507.864 295.703,-508.125"/>
<polygon fill="black" stroke="black" points="295.718,-511.626 305.78,-508.308 295.846,-504.627 295.718,-511.626"/>
</g>
<!-- Derek&#45;&gt;Julia -->
<g id="edge42" class="edge"><title>Derek&#45;&gt;Julia</title>
<path fill="none" stroke="black" d="M249.235,-996.227C263.366,-996.999 281.062,-997.965 296.551,-998.811"/>
<polygon fill="black" stroke="black" points="296.674,-1002.32 306.85,-999.373 297.056,-995.333 296.674,-1002.32"/>
</g>
<!-- Derek&#45;&gt;Hadrian -->
<g id="edge40" class="edge"><title>Derek&#45;&gt;Hadrian</title>
<path fill="none" stroke="black" d="M239.859,-976.622C258.953,-955.9 288.411,-924.302 294.588,-919.805 326.089,-896.877 350.65,-913.299 373.588,-881.805 442.788,-786.797 345.575,-718.384 409.588,-619.805 411.379,-617.047 413.561,-614.522 415.984,-612.221"/>
<polygon fill="black" stroke="black" points="418.181,-614.945 423.823,-605.977 413.82,-609.47 418.181,-614.945"/>
</g>
<!-- Derek&#45;&gt;Lily -->
<g id="edge44" class="edge"><title>Derek&#45;&gt;Lily</title>
<path fill="none" stroke="black" d="M223.618,-1013.06C225.56,-1060.09 236.238,-1187.5 294.588,-1270.81 330.162,-1321.6 350.366,-1331.42 409.588,-1349.81 451.534,-1362.82 502.529,-1360.06 536.184,-1355.86"/>
<polygon fill="black" stroke="black" points="537.03,-1359.28 546.468,-1354.47 536.089,-1352.34 537.03,-1359.28"/>
</g>
<!-- Derek&#45;&gt;Vale -->
<g id="edge45" class="edge"><title>Derek&#45;&gt;Vale</title>
<path fill="none" stroke="black" d="M225.033,-1012.91C231.545,-1073.81 255.241,-1270.04 294.588,-1317.81 354.802,-1390.9 475.669,-1403.61 536.239,-1405.17"/>
<polygon fill="black" stroke="black" points="536.414,-1408.67 546.471,-1405.34 536.531,-1401.67 536.414,-1408.67"/>
</g>
<!-- Derek&#45;&gt;Damien -->
<g id="edge46" class="edge"><title>Derek&#45;&gt;Damien</title>
<path fill="none" stroke="black" d="M224.492,-1012.99C228.327,-1054.78 242.813,-1159.19 294.588,-1225.81 325.623,-1265.74 378.083,-1293.14 414.091,-1308.38"/>
<polygon fill="black" stroke="black" points="413.199,-1311.8 423.779,-1312.36 415.858,-1305.32 413.199,-1311.8"/>
</g>
<!-- Derek&#45;&gt;Flavius -->
<g id="edge41" class="edge"><title>Derek&#45;&gt;Flavius</title>
<path fill="none" stroke="black" d="M249.235,-983.43C263.428,-977.231 281.216,-969.462 296.753,-962.676"/>
<polygon fill="black" stroke="black" points="298.32,-965.81 306.084,-958.6 295.519,-959.396 298.32,-965.81"/>
</g>
<!-- Derek&#45;&gt;Guinevere -->
<g id="edge43" class="edge"><title>Derek&#45;&gt;Guinevere</title>
<path fill="none" stroke="black" d="M241.504,-976.583C247.334,-970.29 253.567,-963.006 258.588,-955.805 278.374,-927.433 272.862,-913.721 294.588,-886.805 296.431,-884.523 298.456,-882.286 300.585,-880.122"/>
<polygon fill="black" stroke="black" points="303.192,-882.477 308.103,-873.089 298.409,-877.365 303.192,-882.477"/>
</g>
<!-- Derek&#45;&gt;Francesca -->
<g id="edge39" class="edge"><title>Derek&#45;&gt;Francesca</title>
<path fill="none" stroke="black" d="M240.848,-1012.96C259.113,-1031.74 287.786,-1061.22 308.315,-1082.33"/>
<polygon fill="black" stroke="black" points="305.994,-1084.97 315.475,-1089.7 311.012,-1080.09 305.994,-1084.97"/>
</g>
<!-- Finndo&#45;&gt;Isis -->
<g id="edge68" class="edge"><title>Finndo&#45;&gt;Isis</title>
<path fill="none" stroke="black" d="M361.864,-311.982C378.235,-313.925 399.38,-316.433 417.19,-318.546"/>
<polygon fill="black" stroke="black" points="416.886,-322.035 427.229,-319.737 417.711,-315.084 416.886,-322.035"/>
</g>
<!-- Finndo&#45;&gt;Sirona -->
<g id="edge67" class="edge"><title>Finndo&#45;&gt;Sirona</title>
<path fill="none" stroke="black" d="M361.864,-324.236C379.629,-334.473 403.015,-347.95 421.662,-358.695"/>
<polygon fill="black" stroke="black" points="419.977,-361.764 430.389,-363.725 423.472,-355.699 419.977,-361.764"/>
</g>
<!-- Finndo&#45;&gt;Loviatar -->
<g id="edge72" class="edge"><title>Finndo&#45;&gt;Loviatar</title>
<path fill="none" stroke="black" d="M359.211,-290.473C364.195,-286.224 369.245,-281.549 373.588,-276.805 392.572,-256.075 389.999,-244.965 409.588,-224.805 411.94,-222.385 414.491,-220.012 417.138,-217.722"/>
<polygon fill="black" stroke="black" points="419.702,-220.149 425.266,-211.133 415.294,-214.711 419.702,-220.149"/>
</g>
<!-- Finndo&#45;&gt;Thessaly -->
<g id="edge69" class="edge"><title>Finndo&#45;&gt;Thessaly</title>
<path fill="none" stroke="black" d="M347.648,-326.856C355.98,-339.516 366.624,-357.099 373.588,-373.805 397.978,-432.311 371.977,-460.784 409.588,-511.805 410.775,-513.415 412.089,-514.951 413.499,-516.412"/>
<polygon fill="black" stroke="black" points="411.359,-519.189 421.202,-523.109 415.951,-513.906 411.359,-519.189"/>
</g>
<!-- Finndo&#45;&gt;Columbine -->
<g id="edge70" class="edge"><title>Finndo&#45;&gt;Columbine</title>
<path fill="none" stroke="black" d="M361.665,-296.47C397.107,-282.066 459.865,-263.991 498.588,-295.805 562.3,-348.149 516.196,-397.427 534.588,-477.805 544.006,-518.963 556.629,-566.179 564.687,-595.504"/>
<polygon fill="black" stroke="black" points="561.399,-596.746 567.435,-605.453 568.146,-594.883 561.399,-596.746"/>
</g>
<!-- Maria -->
<g id="node55" class="node"><title>Maria</title>
<text text-anchor="middle" x="454.088" y="-135.105" font-family="Times,serif" font-size="14.00">Maria</text>
</g>
<!-- Finndo&#45;&gt;Maria -->
<g id="edge66" class="edge"><title>Finndo&#45;&gt;Maria</title>
<path fill="none" stroke="black" d="M346.551,-290.599C354.49,-277.722 365.112,-259.946 373.588,-243.805 391.34,-210.002 384.302,-194.413 409.588,-165.805 412.228,-162.819 415.278,-160.05 418.513,-157.515"/>
<polygon fill="black" stroke="black" points="420.628,-160.306 426.808,-151.701 416.611,-154.574 420.628,-160.306"/>
</g>
<!-- Finndo&#45;&gt;Terrance -->
<g id="edge71" class="edge"><title>Finndo&#45;&gt;Terrance</title>
<path fill="none" stroke="black" d="M357.763,-290.645C371.817,-280.493 390.734,-268.724 409.588,-262.805 449.238,-250.36 496.941,-249.219 530.465,-250.515"/>
<polygon fill="black" stroke="black" points="530.667,-254.029 540.823,-251.01 531.001,-247.037 530.667,-254.029"/>
</g>
<!-- Blaze&#45;&gt;Steven -->
<g id="edge77" class="edge"><title>Blaze&#45;&gt;Steven</title>
<path fill="none" stroke="black" d="M361.276,-753.463C377.699,-757.639 399.095,-763.078 417.101,-767.656"/>
<polygon fill="black" stroke="black" points="416.419,-771.094 426.973,-770.166 418.144,-764.31 416.419,-771.094"/>
</g>
<!-- Blaze&#45;&gt;Thessaly -->
<g id="edge79" class="edge"><title>Blaze&#45;&gt;Thessaly</title>
<path fill="none" stroke="black" d="M361.458,-732.256C366.059,-728.704 370.388,-724.54 373.588,-719.805 412.953,-661.572 368.606,-622.912 409.588,-565.805 410.894,-563.987 412.363,-562.264 413.952,-560.637"/>
<polygon fill="black" stroke="black" points="416.244,-563.282 421.542,-554.108 411.679,-557.976 416.244,-563.282"/>
</g>
<!-- Freya -->
<g id="node59" class="node"><title>Freya</title>
<text text-anchor="middle" x="454.088" y="-827.105" font-family="Times,serif" font-size="14.00">Freya</text>
</g>
<!-- Blaze&#45;&gt;Freya -->
<g id="edge78" class="edge"><title>Blaze&#45;&gt;Freya</title>
<path fill="none" stroke="black" d="M361.394,-764.816C365.517,-767.764 369.698,-770.829 373.588,-773.805 390.129,-786.462 392.699,-791.617 409.588,-803.805 412.413,-805.844 415.392,-807.891 418.412,-809.896"/>
<polygon fill="black" stroke="black" points="416.637,-812.916 426.938,-815.395 420.431,-807.033 416.637,-812.916"/>
</g>
<!-- Cyrano -->
<g id="node60" class="node"><title>Cyrano</title>
<text text-anchor="middle" x="454.088" y="-919.105" font-family="Times,serif" font-size="14.00">Cyrano</text>
</g>
<!-- Blaze&#45;&gt;Cyrano -->
<g id="edge80" class="edge"><title>Blaze&#45;&gt;Cyrano</title>
<path fill="none" stroke="black" d="M361.22,-762.13C365.732,-765.571 370.089,-769.496 373.588,-773.805 399.193,-805.336 390.21,-822.108 409.588,-857.805 416.712,-870.929 425.743,-884.772 433.727,-896.294"/>
<polygon fill="black" stroke="black" points="430.96,-898.443 439.58,-904.603 436.682,-894.412 430.96,-898.443"/>
</g>
<!-- Llewellyn&#45;&gt;Pyar -->
<g id="edge81" class="edge"><title>Llewellyn&#45;&gt;Pyar</title>
<path fill="none" stroke="black" d="M257.963,-162.805C270.344,-162.805 284.311,-162.805 296.814,-162.805"/>
<polygon fill="black" stroke="black" points="296.905,-166.306 306.905,-162.805 296.905,-159.306 296.905,-166.306"/>
</g>
<!-- Llewellyn&#45;&gt;Alaric -->
<g id="edge82" class="edge"><title>Llewellyn&#45;&gt;Alaric</title>
<path fill="none" stroke="black" d="M257.963,-145.719C270.591,-139.515 284.87,-132.498 297.562,-126.262"/>
<polygon fill="black" stroke="black" points="299.473,-129.223 306.905,-121.671 296.386,-122.94 299.473,-129.223"/>
</g>
<!-- Llewellyn&#45;&gt;Sashelas -->
<g id="edge83" class="edge"><title>Llewellyn&#45;&gt;Sashelas</title>
<path fill="none" stroke="black" d="M249.193,-144.588C252.506,-141.81 255.732,-138.849 258.588,-135.805 278.325,-114.771 274.434,-102.441 294.588,-81.8054 295.358,-81.017 296.154,-80.2366 296.971,-79.4656"/>
<polygon fill="black" stroke="black" points="299.426,-81.9722 304.758,-72.8173 294.88,-76.6486 299.426,-81.9722"/>
</g>
<!-- Flavius&#45;&gt;Valentine -->
<g id="edge89" class="edge"><title>Flavius&#45;&gt;Valentine</title>
<path fill="none" stroke="black" d="M362.215,-961.428C366.635,-964.934 370.704,-969.062 373.588,-973.805 436.032,-1076.49 344.289,-1140.91 409.588,-1241.81 410.403,-1243.06 411.3,-1244.28 412.264,-1245.44"/>
<polygon fill="black" stroke="black" points="409.841,-1247.96 419.45,-1252.43 414.723,-1242.95 409.841,-1247.96"/>
</g>
<!-- Flavius&#45;&gt;Leo -->
<g id="edge93" class="edge"><title>Flavius&#45;&gt;Leo</title>
<path fill="none" stroke="black" d="M361.916,-928.551C366.364,-924.481 370.519,-919.856 373.588,-914.805 412.569,-850.663 386.89,-821.35 409.588,-749.805 417.912,-723.57 430.36,-694.797 439.811,-674.347"/>
<polygon fill="black" stroke="black" points="443.105,-675.565 444.178,-665.025 436.766,-672.595 443.105,-675.565"/>
</g>
<!-- Flavius&#45;&gt;Damiana -->
<g id="edge88" class="edge"><title>Flavius&#45;&gt;Damiana</title>
<path fill="none" stroke="black" d="M362.089,-961.507C366.52,-965.005 370.626,-969.111 373.588,-973.805 425.059,-1055.37 355.85,-1107.72 409.588,-1187.81 410.703,-1189.47 411.957,-1191.04 413.318,-1192.54"/>
<polygon fill="black" stroke="black" points="411.094,-1195.25 420.862,-1199.35 415.783,-1190.05 411.094,-1195.25"/>
</g>
<!-- Flavius&#45;&gt;Freya -->
<g id="edge87" class="edge"><title>Flavius&#45;&gt;Freya</title>
<path fill="none" stroke="black" d="M357.871,-928.632C363.137,-924.224 368.643,-919.442 373.588,-914.805 393.352,-896.276 414.366,-873.945 429.822,-856.967"/>
<polygon fill="black" stroke="black" points="432.823,-858.867 436.934,-849.103 427.631,-854.172 432.823,-858.867"/>
</g>
<!-- Flavius&#45;&gt;Cyrano -->
<g id="edge92" class="edge"><title>Flavius&#45;&gt;Cyrano</title>
<path fill="none" stroke="black" d="M362.16,-941.299C378.086,-938.06 398.454,-933.918 415.874,-930.374"/>
<polygon fill="black" stroke="black" points="416.632,-933.792 425.734,-928.369 415.237,-926.932 416.632,-933.792"/>
</g>
<!-- Narcisse -->
<g id="node62" class="node"><title>Narcisse</title>
<text text-anchor="middle" x="573.585" y="-898.105" font-family="Times,serif" font-size="14.00">Narcisse</text>
</g>
<!-- Flavius&#45;&gt;Narcisse -->
<g id="edge90" class="edge"><title>Flavius&#45;&gt;Narcisse</title>
<path fill="none" stroke="black" d="M361.394,-964.816C365.517,-967.764 369.698,-970.829 373.588,-973.805 390.129,-986.462 390.005,-996.715 409.588,-1003.81 446.781,-1017.27 464.021,-1023.03 498.588,-1003.81 525.102,-989.057 516.618,-970.251 534.588,-945.805 539.027,-939.767 544.087,-933.53 549.035,-927.718"/>
<polygon fill="black" stroke="black" points="551.726,-929.957 555.644,-920.113 546.442,-925.366 551.726,-929.957"/>
</g>
<!-- Flavius&#45;&gt;Aurora -->
<g id="edge91" class="edge"><title>Flavius&#45;&gt;Aurora</title>
<path fill="none" stroke="black" d="M362.106,-963.998C366.137,-967.052 370.103,-970.363 373.588,-973.805 393.071,-993.047 386.759,-1008.68 409.588,-1023.81 447.627,-1049 500.428,-1057.2 535.507,-1059.78"/>
<polygon fill="black" stroke="black" points="535.593,-1063.3 545.789,-1060.42 536.023,-1056.31 535.593,-1063.3"/>
</g>
<!-- Beryllium&#45;&gt;Maria -->
<g id="edge65" class="edge"><title>Beryllium&#45;&gt;Maria</title>
<path fill="none" stroke="#c71585" d="M361.099,-198.579C375.32,-188.72 393.308,-176.423 409.588,-165.805 412.343,-164.009 415.21,-162.168 418.1,-160.332"/>
<polygon fill="#c71585" stroke="#c71585" points="420.144,-163.181 426.745,-154.893 416.417,-157.256 420.144,-163.181"/>
</g>
<!-- Beauregard&#45;&gt;Paulette -->
<g id="edge57" class="edge"><title>Beauregard&#45;&gt;Paulette</title>
<path fill="none" stroke="#c71585" d="M373.775,-691.665C414.783,-690.457 479.634,-688.545 524.044,-687.236"/>
<polygon fill="#c71585" stroke="#c71585" points="524.416,-690.727 534.308,-686.934 524.21,-683.73 524.416,-690.727"/>
</g>
<!-- Beauregard&#45;&gt;Catherine -->
<g id="edge56" class="edge"><title>Beauregard&#45;&gt;Catherine</title>
<path fill="none" stroke="#c71585" d="M366.297,-711.069C369.087,-713.705 371.602,-716.618 373.588,-719.805 428.305,-807.62 352.43,-863.56 409.588,-949.805 410.417,-951.056 411.325,-952.258 412.299,-953.415"/>
<polygon fill="#c71585" stroke="#c71585" points="409.899,-955.962 419.531,-960.376 414.754,-950.919 409.899,-955.962"/>
</g>
<!-- Beauregard&#45;&gt;Samantha -->
<g id="edge55" class="edge"><title>Beauregard&#45;&gt;Samantha</title>
<path fill="none" stroke="#c71585" d="M347.406,-674.65C355.63,-661.944 366.244,-644.348 373.588,-627.805 395.493,-578.468 376.572,-554.513 409.588,-511.805 410.057,-511.199 410.544,-510.603 411.047,-510.017"/>
<polygon fill="#c71585" stroke="#c71585" points="413.58,-512.436 418.345,-502.973 408.719,-507.399 413.58,-512.436"/>
</g>
<!-- Charlemagne -->
<g id="node52" class="node"><title>Charlemagne</title>
<text text-anchor="middle" x="454.088" y="-427.105" font-family="Times,serif" font-size="14.00">Charlemagne</text>
</g>
<!-- Beauregard&#45;&gt;Charlemagne -->
<g id="edge54" class="edge"><title>Beauregard&#45;&gt;Charlemagne</title>
<path fill="none" stroke="#c71585" d="M348.081,-674.58C356.495,-661.985 367.062,-644.547 373.588,-627.805 401.639,-555.849 365.219,-521.019 409.588,-457.805 409.939,-457.305 410.303,-456.812 410.678,-456.327"/>
<polygon fill="#c71585" stroke="#c71585" points="413.217,-458.736 417.624,-449.101 408.171,-453.885 413.217,-458.736"/>
</g>
<!-- Natasha -->
<g id="node53" class="node"><title>Natasha</title>
<text text-anchor="middle" x="573.585" y="-827.105" font-family="Times,serif" font-size="14.00">Natasha</text>
</g>
<!-- Beauregard&#45;&gt;Natasha -->
<g id="edge58" class="edge"><title>Beauregard&#45;&gt;Natasha</title>
<path fill="none" stroke="#c71585" d="M373.867,-700.603C408.625,-708.869 459.941,-724.319 498.588,-749.805 510.52,-757.674 533.893,-784.155 551.192,-804.721"/>
<polygon fill="#c71585" stroke="#c71585" points="548.624,-807.107 557.719,-812.541 553.998,-802.621 548.624,-807.107"/>
</g>
<!-- Francesca&#45;&gt;Jillian -->
<g id="edge73" class="edge"><title>Francesca&#45;&gt;Jillian</title>
<path fill="none" stroke="black" d="M369.854,-1123.42C384.799,-1130.13 402.256,-1137.97 417.312,-1144.74"/>
<polygon fill="black" stroke="black" points="416.252,-1148.1 426.809,-1149 419.121,-1141.71 416.252,-1148.1"/>
</g>
<!-- Francesca&#45;&gt;Damiana -->
<g id="edge74" class="edge"><title>Francesca&#45;&gt;Damiana</title>
<path fill="none" stroke="black" d="M349.57,-1125.95C363.768,-1143.08 386.574,-1168.88 409.588,-1187.81 410.747,-1188.76 411.942,-1189.7 413.163,-1190.64"/>
<polygon fill="black" stroke="black" points="411.332,-1193.63 421.503,-1196.6 415.403,-1187.93 411.332,-1193.63"/>
</g>
<!-- Cyndia&#45;&gt;Sirona -->
<g id="edge61" class="edge"><title>Cyndia&#45;&gt;Sirona</title>
<path fill="none" stroke="#c71585" d="M362.318,-492.483C366.413,-489.277 370.344,-485.69 373.588,-481.805 398.062,-452.5 384.302,-432.413 409.588,-403.805 412.583,-400.417 416.106,-397.309 419.828,-394.504"/>
<polygon fill="#c71585" stroke="#c71585" points="421.851,-397.361 428.168,-388.856 417.925,-391.566 421.851,-397.361"/>
</g>
<!-- Cyndia&#45;&gt;Charlemagne -->
<g id="edge60" class="edge"><title>Cyndia&#45;&gt;Charlemagne</title>
<path fill="none" stroke="#c71585" d="M361.099,-490.579C375.32,-480.72 393.308,-468.423 409.588,-457.805 411.263,-456.713 412.98,-455.604 414.718,-454.49"/>
<polygon fill="#c71585" stroke="#c71585" points="416.92,-457.238 423.492,-448.928 413.172,-451.326 416.92,-457.238"/>
</g>
<!-- Natasha&#45;&gt;Kieron -->
<g id="edge114" class="edge"><title>Natasha&#45;&gt;Kieron</title>
<path fill="none" stroke="#ff1493" d="M591.952,-848.816C598.845,-856.476 606.55,-865.726 612.581,-874.805 633.619,-906.474 652.165,-946.295 663.367,-972.37"/>
<polygon fill="#ff1493" stroke="#ff1493" points="660.171,-973.798 667.291,-981.644 666.618,-971.071 660.171,-973.798"/>
</g>
<!-- Freya&#45;&gt;Natasha -->
<g id="edge99" class="edge"><title>Freya&#45;&gt;Natasha</title>
<path fill="none" stroke="black" d="M481.165,-830.805C496.393,-830.805 515.917,-830.805 533.009,-830.805"/>
<polygon fill="black" stroke="black" points="533.276,-834.306 543.276,-830.805 533.276,-827.306 533.276,-834.306"/>
</g>
<!-- Freya&#45;&gt;Narcisse -->
<g id="edge98" class="edge"><title>Freya&#45;&gt;Narcisse</title>
<path fill="none" stroke="black" d="M481.165,-846.563C496.594,-855.886 516.432,-867.874 533.683,-878.298"/>
<polygon fill="black" stroke="black" points="532.062,-881.408 542.431,-883.585 535.683,-875.417 532.062,-881.408"/>
</g>
</g>
</svg>
